<?xml version="1.0" standalone="no"?>
<!DOCTYPE svg PUBLIC "-//W3C//DTD SVG 20010904//EN"
 "http://www.w3.org/TR/2001/REC-SVG-20010904/DTD/svg10.dtd">
<svg version="1.0" xmlns="http://www.w3.org/2000/svg"
 width="473.000000pt" height="1024.000000pt" viewBox="0 0 473.000000 1024.000000"
 preserveAspectRatio="xMidYMid meet">
<metadata>
Created by potrace 1.16, written by Peter Selinger 2001-2019
</metadata>
<g transform="translate(0.000000,1024.000000) scale(0.100000,-0.100000)"
fill="#000000" stroke="none">
<path d="M0 5120 l0 -5120 2365 0 2365 0 0 5120 0 5120 -2365 0 -2365 0 0
-5120z m750 -2599 c0 -30 -9 -44 -162 -263 -48 -69 -88 -129 -88 -132 0 -3 56
-6 125 -6 l125 0 0 -50 0 -50 -210 0 -210 0 0 33 c0 26 27 71 125 212 l125
180 -125 3 -125 3 0 49 0 50 210 0 210 0 0 -29z m190 -236 l0 -265 -65 0 -65
0 0 265 0 265 65 0 65 0 0 -265z m230 50 l0 -214 113 -3 112 -3 3 -47 3 -48
-180 0 -181 0 0 265 0 265 65 0 65 0 0 -215z m632 25 c38 -102 82 -220 98
-262 l29 -78 -69 0 -68 0 -17 50 -17 50 -88 0 -88 0 -17 -50 -17 -50 -68 0
-69 0 13 38 c8 20 44 118 81 217 37 99 74 202 83 228 l16 48 65 -3 64 -3 69
-185z m308 85 c0 -58 3 -105 8 -105 4 0 38 48 77 105 l69 105 78 0 c43 0 78
-2 78 -5 0 -3 -39 -55 -86 -116 -47 -60 -83 -115 -80 -122 15 -35 153 -251
162 -254 6 -2 39 74 74 169 35 95 76 208 92 251 l30 77 62 0 63 0 93 -252 c51
-139 96 -259 98 -266 3 -10 -11 -12 -64 -10 l-69 3 -16 45 -17 45 -88 0 -89 0
-15 -47 -15 -48 -140 0 -141 0 -49 85 c-27 47 -52 91 -56 97 -6 9 -15 6 -33
-12 -23 -21 -26 -31 -26 -97 l0 -73 -65 0 -65 0 0 265 0 265 65 0 65 0 0 -105z"/>
</g>
</svg>
